<svg xmlns="http://www.w3.org/2000/svg" data-name="Layer 1" viewBox="0 0 100 100"><path d="M49.67,41.74a79.46,79.46,0,0,0-7.94-11.69.41.41,0,0,0-.51-.1,22.81,22.81,0,0,0-12,14.61.43.43,0,0,0,.44.53,82.57,82.57,0,0,0,19.77-2.72A.44.44,0,0,0,49.67,41.74Zm4,8c-.42-1-.85-1.92-1.28-2.84a.41.41,0,0,0-.51-.21C44.63,49,36.76,49.78,28.88,50a.42.42,0,0,0-.41.43c.07,5.5,1.79,10.68,5,14.16a.42.42,0,0,0,.64,0c5.72-7.18,12.11-11.92,19.28-14.25A.42.42,0,0,0,53.64,49.78Zm2.14,5.4a.44.44,0,0,0-.53-.27C48.7,57,42.91,61.3,37.64,68.05a.43.43,0,0,0,.08.61A22.63,22.63,0,0,0,59.54,71.5a.43.43,0,0,0,.27-.47A87.5,87.5,0,0,0,55.78,55.18Zm9.49-22.64a22.62,22.62,0,0,0-14.09-4.9,23,23,0,0,0-4,.35.42.42,0,0,0-.25.68,88.48,88.48,0,0,1,7.47,11.49.44.44,0,0,0,.55.19,33.61,33.61,0,0,0,10.37-7.17A.44.44,0,0,0,65.27,32.54Zm7.82,22A38.21,38.21,0,0,0,61,53.74a.42.42,0,0,0-.35.56A91.26,91.26,0,0,1,64.3,68.15a.43.43,0,0,0,.67.27,22.78,22.78,0,0,0,8.45-13.35A.43.43,0,0,0,73.09,54.56ZM69.36,36.75a.42.42,0,0,0-.64,0,38.23,38.23,0,0,1-11.54,8,.42.42,0,0,0-.21.56q.81,1.71,1.59,3.54A.41.41,0,0,0,59,49a41.58,41.58,0,0,1,14.36.56.43.43,0,0,0,.51-.44A22.51,22.51,0,0,0,69.36,36.75Zm0,0a.42.42,0,0,0-.64,0,38.23,38.23,0,0,1-11.54,8,.42.42,0,0,0-.21.56q.81,1.71,1.59,3.54A.41.41,0,0,0,59,49a41.58,41.58,0,0,1,14.36.56.43.43,0,0,0,.51-.44A22.51,22.51,0,0,0,69.36,36.75Zm3.73,17.81A38.21,38.21,0,0,0,61,53.74a.42.42,0,0,0-.35.56A91.26,91.26,0,0,1,64.3,68.15a.43.43,0,0,0,.67.27,22.78,22.78,0,0,0,8.45-13.35A.43.43,0,0,0,73.09,54.56Zm-18.7-14.4a.44.44,0,0,0,.55.19,33.61,33.61,0,0,0,10.37-7.17.44.44,0,0,0,0-.64,22.62,22.62,0,0,0-14.09-4.9,23,23,0,0,0-4,.35.42.42,0,0,0-.25.68A88.48,88.48,0,0,1,54.39,40.16Zm.86,14.75C48.7,57,42.91,61.3,37.64,68.05a.43.43,0,0,0,.08.61A22.63,22.63,0,0,0,59.54,71.5a.43.43,0,0,0,.27-.47,87.5,87.5,0,0,0-4-15.85A.44.44,0,0,0,55.25,54.91Zm-1.87-4.56a.42.42,0,0,0,.26-.57c-.42-1-.85-1.92-1.28-2.84a.41.41,0,0,0-.51-.21C44.63,49,36.76,49.78,28.88,50a.42.42,0,0,0-.41.43c.07,5.5,1.79,10.68,5,14.16a.42.42,0,0,0,.64,0C39.82,57.42,46.21,52.68,53.38,50.35ZM29.65,45.09a82.57,82.57,0,0,0,19.77-2.72.44.44,0,0,0,.25-.63,79.46,79.46,0,0,0-7.94-11.69.41.41,0,0,0-.51-.1,22.81,22.81,0,0,0-12,14.61A.43.43,0,0,0,29.65,45.09ZM51.13,4.66A45.67,45.67,0,1,0,96.8,50.33,45.72,45.72,0,0,0,51.13,4.66ZM48.66,77.9A27.65,27.65,0,1,1,78.72,47.84,27.72,27.72,0,0,1,48.66,77.9ZM68.72,36.71a38.23,38.23,0,0,1-11.54,8,.42.42,0,0,0-.21.56q.81,1.71,1.59,3.54A.41.41,0,0,0,59,49a41.58,41.58,0,0,1,14.36.56.43.43,0,0,0,.51-.44,22.51,22.51,0,0,0-4.51-12.41A.42.42,0,0,0,68.72,36.71Zm4.37,17.85A38.21,38.21,0,0,0,61,53.74a.42.42,0,0,0-.35.56A91.26,91.26,0,0,1,64.3,68.15a.43.43,0,0,0,.67.27,22.78,22.78,0,0,0,8.45-13.35A.43.43,0,0,0,73.09,54.56Zm-18.7-14.4a.44.44,0,0,0,.55.19,33.61,33.61,0,0,0,10.37-7.17.44.44,0,0,0,0-.64,22.62,22.62,0,0,0-14.09-4.9,23,23,0,0,0-4,.35.42.42,0,0,0-.25.68A88.48,88.48,0,0,1,54.39,40.16Zm.86,14.75C48.7,57,42.91,61.3,37.64,68.05a.43.43,0,0,0,.08.61A22.63,22.63,0,0,0,59.54,71.5a.43.43,0,0,0,.27-.47,87.5,87.5,0,0,0-4-15.85A.44.44,0,0,0,55.25,54.91Zm-1.87-4.56a.42.42,0,0,0,.26-.57c-.42-1-.85-1.92-1.28-2.84a.41.41,0,0,0-.51-.21C44.63,49,36.76,49.78,28.88,50a.42.42,0,0,0-.41.43c.07,5.5,1.79,10.68,5,14.16a.42.42,0,0,0,.64,0C39.82,57.42,46.21,52.68,53.38,50.35ZM29.65,45.09a82.57,82.57,0,0,0,19.77-2.72.44.44,0,0,0,.25-.63,79.46,79.46,0,0,0-7.94-11.69.41.41,0,0,0-.51-.1,22.81,22.81,0,0,0-12,14.61A.43.43,0,0,0,29.65,45.09Zm20-3.35a79.46,79.46,0,0,0-7.94-11.69.41.41,0,0,0-.51-.1,22.81,22.81,0,0,0-12,14.61.43.43,0,0,0,.44.53,82.57,82.57,0,0,0,19.77-2.72A.44.44,0,0,0,49.67,41.74Zm4,8c-.42-1-.85-1.92-1.28-2.84a.41.41,0,0,0-.51-.21C44.63,49,36.76,49.78,28.88,50a.42.42,0,0,0-.41.43c.07,5.5,1.79,10.68,5,14.16a.42.42,0,0,0,.64,0c5.72-7.18,12.11-11.92,19.28-14.25A.42.42,0,0,0,53.64,49.78Zm2.14,5.4a.44.44,0,0,0-.53-.27C48.7,57,42.91,61.3,37.64,68.05a.43.43,0,0,0,.08.61A22.63,22.63,0,0,0,59.54,71.5a.43.43,0,0,0,.27-.47A87.5,87.5,0,0,0,55.78,55.18Zm9.49-22.64a22.62,22.62,0,0,0-14.09-4.9,23,23,0,0,0-4,.35.42.42,0,0,0-.25.68,88.48,88.48,0,0,1,7.47,11.49.44.44,0,0,0,.55.19,33.61,33.61,0,0,0,10.37-7.17A.44.44,0,0,0,65.27,32.54Zm7.82,22A38.21,38.21,0,0,0,61,53.74a.42.42,0,0,0-.35.56A91.26,91.26,0,0,1,64.3,68.15a.43.43,0,0,0,.67.27,22.78,22.78,0,0,0,8.45-13.35A.43.43,0,0,0,73.09,54.56ZM69.36,36.75a.42.42,0,0,0-.64,0,38.23,38.23,0,0,1-11.54,8,.42.42,0,0,0-.21.56q.81,1.71,1.59,3.54A.41.41,0,0,0,59,49a41.58,41.58,0,0,1,14.36.56.43.43,0,0,0,.51-.44A22.51,22.51,0,0,0,69.36,36.75Zm0,0a.42.42,0,0,0-.64,0,38.23,38.23,0,0,1-11.54,8,.42.42,0,0,0-.21.56q.81,1.71,1.59,3.54A.41.41,0,0,0,59,49a41.58,41.58,0,0,1,14.36.56.43.43,0,0,0,.51-.44A22.51,22.51,0,0,0,69.36,36.75Zm3.73,17.81A38.21,38.21,0,0,0,61,53.74a.42.42,0,0,0-.35.56A91.26,91.26,0,0,1,64.3,68.15a.43.43,0,0,0,.67.27,22.78,22.78,0,0,0,8.45-13.35A.43.43,0,0,0,73.09,54.56Zm-7.82-22a22.62,22.62,0,0,0-14.09-4.9,23,23,0,0,0-4,.35.42.42,0,0,0-.25.68,88.48,88.48,0,0,1,7.47,11.49.44.44,0,0,0,.55.19,33.61,33.61,0,0,0,10.37-7.17A.44.44,0,0,0,65.27,32.54ZM55.78,55.18a.44.44,0,0,0-.53-.27C48.7,57,42.91,61.3,37.64,68.05a.43.43,0,0,0,.08.61A22.63,22.63,0,0,0,59.54,71.5a.43.43,0,0,0,.27-.47A87.5,87.5,0,0,0,55.78,55.18Zm-2.14-5.4c-.42-1-.85-1.92-1.28-2.84a.41.41,0,0,0-.51-.21C44.63,49,36.76,49.78,28.88,50a.42.42,0,0,0-.41.43c.07,5.5,1.79,10.68,5,14.16a.42.42,0,0,0,.64,0c5.72-7.18,12.11-11.92,19.28-14.25A.42.42,0,0,0,53.64,49.78Zm-4-8a79.46,79.46,0,0,0-7.94-11.69.41.41,0,0,0-.51-.1,22.81,22.81,0,0,0-12,14.61.43.43,0,0,0,.44.53,82.57,82.57,0,0,0,19.77-2.72A.44.44,0,0,0,49.67,41.74Z"/></svg>